<svg id="visual" viewBox="0 0 1280 600" width="1280" height="600" xmlns="http://www.w3.org/2000/svg" xmlns:xlink="http://www.w3.org/1999/xlink" version="1.1"><rect x="0" y="0" width="1280" height="600" fill="#002233"></rect><path d="M0 297L26.7 295.3C53.3 293.7 106.7 290.3 160 283.5C213.3 276.7 266.7 266.3 320 264.7C373.3 263 426.7 270 480 283.5C533.3 297 586.7 317 640 313.7C693.3 310.3 746.7 283.7 800 277.8C853.3 272 906.7 287 960 290.8C1013.3 294.7 1066.7 287.3 1120 281.5C1173.3 275.7 1226.7 271.3 1253.3 269.2L1280 267L1280 601L1253.3 601C1226.7 601 1173.3 601 1120 601C1066.7 601 1013.3 601 960 601C906.7 601 853.3 601 800 601C746.7 601 693.3 601 640 601C586.7 601 533.3 601 480 601C426.7 601 373.3 601 320 601C266.7 601 213.3 601 160 601C106.7 601 53.3 601 26.7 601L0 601Z" fill="#0066FF" stroke-linecap="round" stroke-linejoin="miter"></path></svg>